# AST/ASF file generated using VICON BodyLanguage
# -----------------------------------------------
:version 1.10
:name VICON
:units
  mass 1.0
  length 0.45
  angle deg
:documentation
   .ast/.asf automatically generated from VICON data using
   VICON BodyBuilder and BodyLanguage model FoxedUp or BRILLIANT.MOD
:root
   order TX TY TZ RX RY RZ
   axis XYZ
   position 0 0 0  
   orientation 0 0 0 
:bonedata
  begin
     id 1 
     name lhipjoint
     direction 0.543289 -0.788407 0.288535 
     length 2.57127 
     axis 0 0 0  XYZ
  end
  begin
     id 2 
     name lfemur
     direction 0.34202 -0.939693 0  
     length 8.47298  
     axis 0 0 20  XYZ
    dof rx ry rz
    limits (-160.0 20.0)
           (-70.0 70.0)
           (-60.0 70.0)
  end
  begin
     id 3 
     name ltibia
     direction 0.34202 -0.939693 0   
     length 8.13367   
     axis 0 0 20   XYZ
    dof rx
    limits (-10.0 170.0)
  end
  begin
     id 4 
     name lfoot
     direction 0.114037 -0.313314 0.942778   
     length 2.67113   
     axis -90 7.62852e-016 20   XYZ
    dof rx rz
    limits (-45.0 90.0)
           (-70.0 20.0)
  end
  begin
     id 5 
     name ltoes
     direction 1.536e-011 -4.21847e-011 1   
     length 1.32217   
     axis -90 7.62852e-016 20   XYZ
    dof rx
    limits (-90.0 20.0)
  end
  begin
     id 6 
     name rhipjoint
     direction -0.571293 -0.770752 0.282074   
     length 2.63017  
     axis 0 0 0  XYZ 
  end
  begin
     id 7 
     name rfemur
     direction -0.34202 -0.939693 0   
     length 8.60885   
     axis 0 0 -20   XYZ
    dof rx ry rz
    limits (-160.0 20.0)
           (-70.0 70.0)
           (-70.0 60.0)
  end
  begin
     id 8 
     name rtibia
     direction -0.34202 -0.939693 0   
     length 8.07673   
     axis 0 0 -20   XYZ
    dof rx
    limits (-10.0 170.0)
 end
 begin
     id 9 
     name rfoot
     direction -0.121336 -0.333368 0.934956   
     length 2.81602  
     axis -90 -7.62852e-016 -20   XYZ
    dof rx rz
    limits (-45.0 90.0)
           (-20.0 70.0)
  end
  begin
     id 10 
     name rtoes
     direction -1.53491e-011 -4.21808e-011 1   
     length 1.38905   
     axis -90 -7.62852e-016 -20   XYZ
    dof rx
    limits (-90.0 20.0)
  end
  begin
     id 11 
     name lowerback
     direction 0.0136776 0.999869 -0.00861835   
     length 2.14087   
     axis 0 0 0   XYZ
    dof rx ry rz
    limits (-20.0 45.0)
           (-30.0 30.0)
           (-30.0 30.0)
  end
  begin
     id 12 
     name upperback
     direction -0.00789158 0.999804 0.0181308   
     length 2.14151   
     axis 0 0 0   XYZ
    dof rx ry rz
    limits (-20.0 45.0)
           (-30.0 30.0)
           (-30.0 30.0)
  end
  begin
     id 13 
     name thorax
     direction -0.0135231 0.999666 0.0220247   
     length 2.13644   
     axis 0 0 0   XYZ
    dof rx ry rz
    limits (-20.0 45.0)
           (-30.0 30.0)
           (-30.0 30.0)
  end
  begin
     id 14 
     name lowerneck
     direction -0.0392259 0.997317 0.0618018   
     length 1.65045   
     axis 0 0 0   XYZ
    dof rx ry rz
    limits (-20.0 45.0)
           (-30.0 30.0)
           (-30.0 30.0)
  end
  begin
     id 15 
     name upperneck
     direction 0.0765547 0.994276 -0.0745319   
     length 1.66045   
     axis 0 0 0   XYZ
    dof rx ry rz
    limits (-20.0 45.0)
           (-30.0 30.0)
           (-30.0 30.0)
  end
  begin
     id 16
     name head
     direction 0.0241564 0.999031 -0.036785  
     length 1.66594  
     axis 0 0 0   XYZ
    dof rx ry rz
    limits (-20.0 45.0)
           (-30.0 30.0)
           (-30.0 30.0)
  end
  begin
     id 17 
     name lclavicle
     direction 0.967398 0.249018 0.0461573  
     length 3.75176  
     axis 0 0 0   XYZ
    dof ry rz
    limits (-20.0 10.0)
           (0.0 20.0)
  end
  begin
     id 18 
     name lhumerus
     direction 1 -4.48963e-011 -3.05005e-027   
     length 5.93342   
     axis 180 -30 -90   XYZ
    dof rx ry rz
    limits (-60.0 90.0)
           (-90.0 90.0)
           (-90.0 90.0)
  end
  begin
     id 19
     name lradius
     direction 1 -4.48957e-011 1.07006e-026   
     length 3.94763   
     axis 180 -30 -90   XYZ
    dof rx
    limits (-10.0 170.0)
  end
  begin
     id 20
     name lwrist
     direction 1 -4.48978e-011 1.92422e-026   
     length 1.97382   
     axis -1.18182e-014 90 90   XYZ
    dof ry
    limits (-180.0 0.0)
 end
  begin
     id 21 
     name lhand
     direction 1 -4.48931e-011 3.84844e-026   
     length 0.560187   
     axis -2.45563e-014 90 90   XYZ
    dof rx rz
    limits (-90.0 90.0)
           (-45.0 45.0)
  end
  begin
     id 22 
     name lfingers
     direction 1 -4.48952e-011 7.69687e-026   
     length 0.451637   
     axis -4.91126e-014 90 90   XYZ
    dof rx
    limits (0.0 90.0)
  end
  begin
     id 23
     name lthumb
     direction 0.707107 -6.34901e-011 0.707107   
     length 0.648463   
     axis -90 45 2.85299e-015   XYZ
    dof rx rz
    limits (-45.0 45.0)
           (-45.0 45.0)
  end
  begin
     id 24 
     name rclavicle
     direction -0.965946 0.258716 0.00371831   
     length 3.63667  
     axis 0 0 0   XYZ 
    dof ry rz
    limits (-10.0 20.0)
           (-20.0 0.0)
  end
  begin
     id 25 
     name rhumerus
     direction -1 -4.48966e-011 -1.78361e-028  
     length 6.28647   
     axis 180 30 90   XYZ
    dof rx ry rz
    limits (-90.0 60.0)
           (-90.0 90.0)
           (-90.0 90.0)
  end
  begin
     id 26 
     name rradius
     direction -1 -4.48961e-011 1.05248e-026   
     length 3.81645   
     axis 180 30 90   XYZ
    dof rx
    limits (-10.0 170.0)
  end
  begin
     id 27 
     name rwrist
     direction -1 -4.48979e-011 1.92422e-026   
     length 1.90822   
     axis -1.18182e-014 -90 -90   XYZ
    dof ry
    limits (-180.0 0.0)
  end
  begin
     id 28
     name rhand
     direction -1 -4.48937e-011 3.84844e-026   
     length 0.646185   
     axis -2.45563e-014 -90 -90   XYZ
    dof rx rz
    limits (-90.0 90.0)
           (-45.0 45.0)
  end
  begin
     id 29
     name rfingers
     direction -1 -4.48953e-011 7.69687e-026   
     length 0.520971   
     axis -4.91126e-014 -90 -90   XYZ
    dof rx
    limits (0.0 90.0)
  end
  begin
     id 30
     name rthumb
     direction -0.707107 -6.3494e-011 0.707107   
     length 0.748013   
     axis -90 -45 -2.85299e-015   XYZ
    dof rx rz
    limits (-45.0 45.0)
           (-45.0 45.0)
  end
:hierarchy
  begin
    root lhipjoint rhipjoint lowerback
    lhipjoint lfemur
    lfemur ltibia
    ltibia lfoot
    lfoot ltoes
    rhipjoint rfemur
    rfemur rtibia
    rtibia rfoot
    rfoot rtoes
    lowerback upperback
    upperback thorax
    thorax lowerneck lclavicle rclavicle
    lowerneck upperneck
    upperneck head
    lclavicle lhumerus
    lhumerus lradius
    lradius lwrist
    lwrist lhand lthumb
    lhand lfingers
    rclavicle rhumerus
    rhumerus rradius
    rradius rwrist
    rwrist rhand rthumb
    rhand rfingers
  end

#!OML:ASF H:\HAZMAT1\Patient Classification 1\Patient 3\Session 1\dancer.ASF
:FULLY-SPECIFIED
:DEGREES
30
upperback -2.649630 -7.035060 0.535708
rfoot -25.981501 -14.713000
lradius 22.189301
lthumb 5.901600 53.629200
rradius 23.567301
lwrist -17.660299
rhand -15.889700 -21.501101
rhumerus -62.641800 -11.390100 -67.116699
lowerneck -0.771183 3.932280 4.210730
lhand -20.453899 23.731400
ltibia 37.338200
head 0.305119 2.601820 -1.414280
rwrist 11.015400
lfingers 7.125020
rtoes 16.635201
lowerback -4.138590 -5.049740 9.408580
rfingers 7.125020
lclavicle 0.000000 -0.000000
upperneck -0.012458 5.212320 -2.410890
rfemur -20.973600 20.950001 20.787500
thorax -1.515020 -3.673430 -4.796400
rclavicle 0.000000 -0.000000
rtibia 35.716599
lfoot -21.046400 4.605050
lhumerus -28.692200 9.189370 71.209396
rthumb 10.306500 -51.228600
root -16.868401 19.423700 42.422100 -169.824997 -178.757996 178.509995
ltoes 13.730400
lfemur -24.656300 -19.513000 -18.199499
31
upperback -2.691970 -6.602920 0.063500
rfoot -26.445400 -14.532800
lradius 22.674500
lthumb 7.509010 51.168701
rradius 24.578800
lwrist -18.857901
rhand -15.992300 -21.181601
rhumerus -61.218201 -10.162100 -70.194504
lowerneck -1.275110 3.015320 3.236350
lhand -18.788799 21.322001
ltibia 37.899300
head 0.621004 1.992610 -0.982824
rwrist 8.983050
lfingers 7.125020
rtoes 17.086100
lowerback -4.017890 -4.753050 8.602270
rfingers 7.125020
lclavicle 0.000000 -0.000000
upperneck 1.009930 3.983080 -1.581640
rfemur -19.405600 19.483200 21.613100
thorax -1.520790 -3.452860 -4.837220
rclavicle 0.000000 -0.000000
rtibia 35.226898
lfoot -21.377001 5.147790
lhumerus -34.898201 7.521530 72.308899
rthumb 10.207500 -50.914001
root -16.966700 19.402500 42.499802 -170.477005 -180.572006 178.619995
ltoes 12.014400
lfemur -24.100500 -21.330400 -18.143400
32
upperback -2.617630 -6.003760 -0.366141
rfoot -27.039200 -14.972300
lradius 22.546200
lthumb 13.619200 46.640499
rradius 24.076599
lwrist -18.757200
rhand -14.882300 -20.183100
rhumerus -60.990200 -9.818410 -70.407997
lowerneck -1.961330 2.228720 2.675500
lhand -12.454300 17.106001
ltibia 37.954498
head 0.895662 1.464320 -0.625506
rwrist 9.332560
lfingers 7.125020
rtoes 17.596600
lowerback -3.233040 -4.360490 8.287980
rfingers 7.125020
lclavicle -0.000000 0.000000
upperneck 1.694960 2.911980 -0.726376
rfemur -17.963100 19.174400 22.263500
thorax -1.806070 -3.162650 -5.049290
rclavicle -0.000000 0.000000
rtibia 35.368099
lfoot -21.747400 6.541450
lhumerus -38.375599 2.797880 81.292603
rthumb 11.278300 -49.859901
root -17.059601 19.383301 42.669800 -171.121002 -181.630997 178.867996
ltoes 11.770100
lfemur -22.830601 -23.910299 -18.438601
33
upperback -2.612770 -6.149610 -0.690561
rfoot -27.341200 -15.075100
lradius 25.984501
lthumb 13.226200 46.768600
rradius 22.969400
lwrist -16.683599
rhand -15.277600 -19.676300
rhumerus -61.822498 -8.048340 -66.225502
lowerneck -1.771470 2.322820 2.505360
lhand -12.862000 17.208200
ltibia 37.884899
head 0.935821 1.532580 -0.413792
rwrist 11.712700
lfingers 7.125020
rtoes 18.528200
lowerback -2.737020 -4.512250 7.263030
rfingers 7.125020
lclavicle 0.000000 -0.000000
upperneck 1.967760 3.033400 -0.134950
rfemur -18.249300 18.886900 22.608200
thorax -2.021770 -3.229220 -4.774410
rclavicle 0.000000 -0.000000
rtibia 36.104099
lfoot -21.878201 5.411670
lhumerus -37.318298 -1.875500 82.979401
rthumb 10.897000 -49.373501
root -17.266600 19.370300 42.697601 -171.113007 -182.016006 179.309998
ltoes 11.350300
lfemur -22.734301 -23.559601 -18.137501
